# xmcd
#
# Track frame offsets:
#	150
#	14025
#	40672
#	61532
#	64516
#	75331
#	95621
#	120221
#	135094
#	147359
#	163940
#	181714
#	197437
#	222000
#	247264
#
# Disc length: 3465 seconds
#
# Revision: 10
# Processed by: cddbd v1.5.2PL0 Copyright (c) Steve Scherf et al.
# Submitted via: EasyCDDAExtractor 15.3.0.1
#
DISCID=bb0d870f
DTITLE=Clint Black - D'lectrified
DYEAR=2002
DGENRE=Country
TTITLE0=Clint Black - Bob Away My Blues
TTITLE1=Clint Black - Are You Sure Waylon Done It This Way
TTITLE2=Clint Black - Hand In The Fire
TTITLE3=Clint Black - Outside Intro (To Galaxy Song)
TTITLE4=Clint Black - Galaxy Song
TTITLE5=Clint Black with Lisa Hartman Black - When I Said I Do
TTITLE6=Clint Black with Steve Wariner - Been There
TTITLE7=Clint Black with Bruce Hornsby - Dixie Lullaby
TTITLE8=Clint Black - Where Your Love Won't Go
TTITLE9=Clint Black - Love She Can't Live Without
TTITLE10=Clint Black - Burn One Down
TTITLE11=Clint Black - Who I Use To Be
TTITLE12=Clint Black with Kenny Loggins - Harmony
TTITLE13=Clint Black - No Time To Kill
TTITLE14=Clint Black - Mystery Track
EXTD=
EXTT0=
EXTT1=
EXTT2=
EXTT3=
EXTT4=
EXTT5=
EXTT6=
EXTT7=
EXTT8=
EXTT9=
EXTT10=
EXTT11=
EXTT12=
EXTT13=
EXTT14=
PLAYORDER=
